<!-- icon666.com - MILLIONS vector ICONS FREE --><svg xmlns="http://www.w3.org/2000/svg" version="1.1" viewBox="0 0 639.99515 639"><g id="surface1"><path d="M 636.65625 333.84375 C 631.992188 325.515625 622.988281 320.175781 613.324219 320.175781 L 553.660156 320.175781 L 609.320312 227.179688 C 619.320312 209.847656 606.65625 187.183594 586.324219 186.851562 L 531.324219 186.851562 L 634.660156 42.519531 C 641.65625 32.519531 640.992188 18.1875 632.65625 8.851562 C 624.320312 -0.148438 609.992188 -2.148438 599.320312 4.183594 L 387.992188 131.183594 L 398.992188 86.855469 C 403.660156 66.183594 382.992188 48.1875 363.328125 55.519531 C 357.660156 57.851562 226.332031 110.519531 145 164.851562 C 82.996094 206.179688 0 275.847656 0 400.175781 C 0 532.511719 107.664062 640.175781 240 640.175781 C 465.992188 640.175781 629.320312 371.847656 636.324219 360.515625 C 640.992188 352.179688 641.324219 342.179688 636.65625 333.84375 Z M 240 586.84375 C 137 586.84375 53.335938 503.179688 53.335938 400.175781 C 53.335938 302.511719 118.335938 246.847656 174.667969 209.175781 C 221.664062 177.847656 288.996094 145.851562 334.328125 125.851562 L 320.667969 180.519531 C 315.667969 202.84375 340.328125 221.179688 360.324219 209.847656 L 516.992188 115.851562 L 458.328125 198.179688 C 446.324219 215.515625 458.992188 239.847656 479.992188 240.515625 L 539.660156 240.515625 L 483.992188 333.511719 C 473.992188 350.847656 486.65625 373.511719 506.992188 373.84375 L 563.328125 373.84375 C 509.992188 445.175781 387.328125 586.84375 240 586.84375 Z M 240 586.84375 " style=" stroke:none;fill-rule:nonzero;fill:rgb(0%,0%,0%);fill-opacity:1;"></path><path d="M 240 240.179688 C 151.664062 240.179688 80 311.847656 80 400.175781 C 80 488.511719 151.664062 560.175781 240 560.175781 C 328.332031 560.175781 399.992188 488.511719 399.992188 400.175781 C 399.992188 311.847656 328.332031 240.179688 240 240.179688 Z M 240 506.847656 C 181 506.847656 133.335938 459.175781 133.335938 400.175781 C 133.335938 341.179688 181 293.511719 240 293.511719 C 298.996094 293.511719 346.664062 341.179688 346.664062 400.175781 C 346.664062 459.175781 298.996094 506.847656 240 506.847656 Z M 240 506.847656 " style=" stroke:none;fill-rule:nonzero;fill:rgb(0%,0%,0%);fill-opacity:1;"></path><path d="M 240 373.511719 C 240 388.238281 228.058594 400.175781 213.332031 400.175781 C 198.601562 400.175781 186.664062 388.238281 186.664062 373.511719 C 186.664062 358.785156 198.601562 346.847656 213.332031 346.847656 C 228.058594 346.847656 240 358.785156 240 373.511719 Z M 240 373.511719 " style=" stroke:none;fill-rule:nonzero;fill:rgb(0%,0%,0%);fill-opacity:1;"></path><path d="M 240 453.511719 C 240 468.238281 228.058594 480.175781 213.332031 480.175781 C 198.601562 480.175781 186.664062 468.238281 186.664062 453.511719 C 186.664062 438.785156 198.601562 426.847656 213.332031 426.847656 C 228.058594 426.847656 240 438.785156 240 453.511719 Z M 240 453.511719 " style=" stroke:none;fill-rule:nonzero;fill:rgb(0%,0%,0%);fill-opacity:1;"></path><path d="M 319.996094 400.175781 C 319.996094 414.90625 308.058594 426.847656 293.332031 426.847656 C 278.601562 426.847656 266.664062 414.90625 266.664062 400.175781 C 266.664062 385.449219 278.601562 373.511719 293.332031 373.511719 C 308.058594 373.511719 319.996094 385.449219 319.996094 400.175781 Z M 319.996094 400.175781 " style=" stroke:none;fill-rule:nonzero;fill:rgb(0%,0%,0%);fill-opacity:1;"></path></g></svg>